<svg version="1.1" xmlns="http://www.w3.org/2000/svg" xmlns:xlink="http://www.w3.org/1999/xlink" width="156.5" height="88.5" viewBox="0,0,156.5,88.5"><g transform="translate(-149.75,-133.41666)"><g data-paper-data="{&quot;isPaintingLayer&quot;:true}" fill="#ffffff" fill-rule="nonzero" stroke="#ffffff" stroke-width="0.5" stroke-linecap="butt" stroke-linejoin="miter" stroke-miterlimit="10" stroke-dasharray="" stroke-dashoffset="0" style="mix-blend-mode: normal"><path d="M278,174.16666c0,22.36753 -20.81876,40.5 -46.5,40.5c-25.68124,0 -46.5,-18.13247 -46.5,-40.5c0,-22.36753 20.81876,-40.5 46.5,-40.5c25.68124,0 46.5,18.13247 46.5,40.5z"/><path d="M306,187.16666c0,15.74012 -14.10303,28.5 -31.5,28.5c-17.39697,0 -31.5,-12.75988 -31.5,-28.5c0,-15.74012 14.10303,-28.5 31.5,-28.5c17.39697,0 31.5,12.75988 31.5,28.5z"/><path d="M213,189.16666c0,15.74012 -14.10303,28.5 -31.5,28.5c-17.39697,0 -31.5,-12.75988 -31.5,-28.5c0,-15.74012 14.10303,-28.5 31.5,-28.5c17.39697,0 31.5,12.75988 31.5,28.5z"/><path d="M301,193.16666c0,15.74012 -32.45935,28.5 -72.5,28.5c-40.04065,0 -72.5,-12.75988 -72.5,-28.5c0,-15.74012 32.45935,-28.5 72.5,-28.5c40.04065,0 72.5,12.75988 72.5,28.5z"/></g></g></svg>